<?xml version="1.0" encoding="utf-8"?>
<!-- FENACREP  -->
<svg version="1.0" id="Capa_1" xmlns="http://www.w3.org/2000/svg" xmlns:xlink="http://www.w3.org/1999/xlink" x="0px" y="0px"
	 viewBox="0 0 781.4 263.5" style="enable-background:new 0 0 781.4 263.5;" xml:space="preserve">
<style type="text/css">
	.st0{fill-rule:evenodd;clip-rule:evenodd;fill:url(#SVGID_1_);}
	.st1{fill-rule:evenodd;clip-rule:evenodd;fill:#7D7F80;}
	.st2{fill-rule:evenodd;clip-rule:evenodd;fill:url(#SVGID_2_);}
</style>
<linearGradient id="SVGID_1_" gradientUnits="userSpaceOnUse" x1="389.4984" y1="71.7625" x2="389.5035" y2="4.4475">
	<stop  offset="0" style="stop-color:#052C5A"/>
	<stop  offset="1" style="stop-color:#004588"/>
</linearGradient>
<path class="st0" d="M341.4,50.3c0-26.3,21.9-48.1,48.1-48.1c26.3,0,48.1,21.9,48.1,48.1c0,17.5-8.8,32.8-24.1,41.6
	c-24.1-41.6-24.1-41.6-24.1-41.6c0-2.2,0-2.2,0,0c-24.1,41.6-24.1,41.6-24.1,41.6C350.1,83.1,341.4,67.8,341.4,50.3L341.4,50.3z"/>
<path class="st1" d="M428.9,0c28.4,13.1,46,41.6,46,74.4c0,35-17.5,63.5-46,76.6c0,19.7,0,19.7,0,19.7c-32.8,0-32.8,0-32.8,0
	c-13.1,0-13.1,0-13.1,0c-32.8,0-32.8,0-32.8,0c0-19.7,0-19.7,0-19.7c-26.3-13.1-46-41.6-46-76.6c0-32.8,17.5-61.3,46-74.4
	c4.4,6.6,4.4,6.6,4.4,6.6c-19.7,13.1-30.6,32.8-30.6,54.7s10.9,41.6,28.4,54.7c-8.8,13.1-8.8,13.1-8.8,13.1v2.2
	c39.4,0,39.4,0,39.4,0c0,39.4,0,39.4,0,39.4c13.1,0,13.1,0,13.1,0c0-39.4,0-39.4,0-39.4c39.4,0,39.4,0,39.4,0v-2.2
	c-8.8-13.1-8.8-13.1-8.8-13.1c17.5-13.1,28.4-32.8,28.4-54.7s-10.9-41.6-30.6-54.7L428.9,0z"/>
<linearGradient id="SVGID_2_" gradientUnits="userSpaceOnUse" x1="389.496" y1="241.7209" x2="389.501" y2="193.136">
	<stop  offset="0" style="stop-color:#052C5A"/>
	<stop  offset="1" style="stop-color:#004588"/>
</linearGradient>
<path class="st2" d="M10.9,249.5c28.4,0,28.4,0,28.4,0c0-50.3,0-50.3,0-50.3c26.3,0,26.3,0,26.3,0c0-17.5,0-17.5,0-17.5
	c-26.3,0-26.3,0-26.3,0c0-2.2,0-2.2,0-2.2c0-8.8,2.2-8.8,13.1-8.8c4.4,0,8.8,0,13.1,0c0-17.5,0-17.5,0-17.5c-6.6,0-13.1,0-19.7,0
	c-24.1,0-35,4.4-35,24.1c0,4.4,0,4.4,0,4.4c-10.9,0-10.9,0-10.9,0c0,17.5,0,17.5,0,17.5c10.9,0,10.9,0,10.9,0V249.5L10.9,249.5z
	 M678.3,264.8c28.4,0,28.4,0,28.4,0c0-28.4,0-28.4,0-28.4l0,0c6.6,10.9,10.9,13.1,28.4,13.1c4.4,0,4.4,0,4.4,0
	c35,0,39.4-10.9,39.4-28.4c0-10.9,0-10.9,0-10.9c0-17.5-4.4-28.4-39.4-28.4c-6.6,0-6.6,0-6.6,0c-17.5,0-24.1,4.4-26.3,10.9
	c-2.2,0-2.2,0-2.2,0c0-10.9,0-10.9,0-10.9c-26.3,0-26.3,0-26.3,0V264.8L678.3,264.8z M706.8,212.3c0-10.9,4.4-13.1,17.5-13.1
	c13.1,0,13.1,0,13.1,0c13.1,0,15.3,4.4,15.3,13.1c0,6.6,0,6.6,0,6.6c0,8.8-2.2,13.1-15.3,13.1c-13.1,0-13.1,0-13.1,0
	c-13.1,0-17.5-2.2-17.5-13.1V212.3L706.8,212.3z M575.5,218.8c0,28.4,17.5,30.6,37.2,30.6c21.9,0,21.9,0,21.9,0
	c19.7,0,35-2.2,35-19.7c0-4.4,0-4.4,0-4.4c-26.3,0-26.3,0-26.3,0c0,4.4,0,8.8-15.3,8.8c-8.8,0-8.8,0-8.8,0
	c-10.9,0-17.5-2.2-17.5-8.8c0-4.4,0-4.4,0-4.4c67.8,0,67.8,0,67.8,0c0-10.9,0-10.9,0-10.9c0-24.1-10.9-28.4-41.6-28.4
	c-19.7,0-19.7,0-19.7,0c-19.7,0-32.8,4.4-32.8,30.6V218.8L575.5,218.8z M601.8,205.7c0-8.8,2.2-8.8,21.9-8.8c15.3,0,19.7,0,19.7,8.8
	H601.8L601.8,205.7z M488,249.5c28.4,0,28.4,0,28.4,0c0-37.2,0-37.2,0-37.2c0-8.8,6.6-10.9,17.5-10.9c10.9,0,13.1,2.2,13.1,10.9
	c24.1,0,24.1,0,24.1,0c0-2.2,0-4.4,0-4.4c0-19.7-8.8-26.3-28.4-26.3c-13.1,0-24.1,2.2-28.4,13.1l0,0c0-13.1,0-13.1,0-13.1
	c-26.3,0-26.3,0-26.3,0V249.5L488,249.5z M380.7,218.8c0,28.4,19.7,30.6,39.4,30.6c28.4,0,28.4,0,28.4,0c15.3,0,32.8-4.4,32.8-21.9
	c0-6.6,0-6.6,0-6.6c-28.4,0-28.4,0-28.4,0c0,2.2,0,2.2,0,2.2c0,6.6-6.6,6.6-15.3,6.6c-13.1,0-13.1,0-13.1,0
	c-8.8,0-15.3-2.2-15.3-10.9c0-8.8,0-8.8,0-8.8c0-6.6,6.6-10.9,17.5-10.9c10.9,0,10.9,0,10.9,0c13.1,0,15.3,2.2,15.3,8.8
	c28.4,0,28.4,0,28.4,0c0-4.4,0-4.4,0-4.4c0-15.3-13.1-21.9-35-21.9c-30.6,0-30.6,0-30.6,0c-19.7,0-35,4.4-35,30.6V218.8L380.7,218.8
	z M275.7,231.9c0,15.3,13.1,17.5,28.4,17.5c19.7,0,19.7,0,19.7,0c13.1,0,17.5,0,24.1-8.8c0,8.8,0,8.8,0,8.8c26.3,0,26.3,0,26.3,0
	c0-43.8,0-43.8,0-43.8c0-17.5-8.8-24.1-28.4-24.1c-32.8,0-32.8,0-32.8,0c-24.1,0-32.8,2.2-32.8,19.7c26.3,0,26.3,0,26.3,0
	c0-4.4,2.2-4.4,10.9-4.4c17.5,0,17.5,0,17.5,0c10.9,0,13.1,2.2,13.1,8.8c0,6.6,0,6.6,0,6.6c-6.6-6.6-15.3-6.6-30.6-6.6
	c-26.3,0-41.6,2.2-41.6,19.7V231.9L275.7,231.9z M319.5,234.1c-10.9,0-15.3-2.2-15.3-6.6c0-4.4,2.2-6.6,13.1-6.6
	c13.1,0,13.1,0,13.1,0c15.3,0,17.5,0,17.5,6.6c0,4.4-2.2,6.6-21.9,6.6H319.5L319.5,234.1z M170.7,249.5c28.4,0,28.4,0,28.4,0
	c0-35,0-35,0-35c0-8.8,6.6-13.1,17.5-13.1c6.6,0,6.6,0,6.6,0c13.1,0,19.7,2.2,19.7,8.8c0,39.4,0,39.4,0,39.4c26.3,0,26.3,0,26.3,0
	c0-39.4,0-39.4,0-39.4c0-28.4-24.1-28.4-41.6-28.4c-13.1,0-24.1,2.2-28.4,10.9l0,0c0-10.9,0-10.9,0-10.9c-28.4,0-28.4,0-28.4,0
	V249.5L170.7,249.5z M65.6,218.8v-6.6c0-26.3,15.3-30.6,35-30.6c0,0,0,0,19.7,0c30.6,0,41.6,4.4,41.6,28.4c0,0,0,0,0,10.9
	c0,0,0,0-67.8,0c0,0,0,0,0,4.4c0,6.6,6.6,8.8,17.5,8.8c0,0,0,0,8.8,0c15.3,0,15.3-4.4,15.3-8.8c0,0,0,0,26.3,0c0,0,0,0,0,4.4
	c0,17.5-15.3,19.7-37.2,19.7c0,0,0,0-19.7,0C85.3,249.5,65.6,247.3,65.6,218.8L65.6,218.8z M94.1,205.7h41.6c0-8.8-4.4-8.8-19.7-8.8
	C96.3,196.9,94.1,196.9,94.1,205.7z"/>
</svg>
